<mxfile host="app.diagrams.net" modified="2024-05-24T12:32:54.810Z" agent="Mozilla/5.0 (X11; CrOS x86_64 14816.131.0) AppleWebKit/537.36 (KHTML, like Gecko) Chrome/103.0.0.0 Safari/537.36" version="24.4.7" etag="kkxVSxxb2sYif0ZcqkYL" type="github">
  <diagram name="PÃ¡gina-1" id="VP7_L9k3NEy3EhCCWWTD">
    <mxGraphModel>
      <root>
        <mxCell id="0" />
        <mxCell id="1" parent="0" />
      </root>
    </mxGraphModel>
  </diagram>
</mxfile>
